<?xml version="1.0" encoding="UTF-8" standalone="no"?>
<!-- Created with Inkscape (http://www.inkscape.org/) -->

<svg
   width="92.439705mm"
   height="43.024868mm"
   viewBox="0 0 92.439703 43.024869"
   version="1.1"
   id="svg5"
   inkscape:version="1.1.1 (3bf5ae0d25, 2021-09-20, custom)"
   sodipodi:docname="RailLabel.svg"
   xmlns:inkscape="http://www.inkscape.org/namespaces/inkscape"
   xmlns:sodipodi="http://sodipodi.sourceforge.net/DTD/sodipodi-0.dtd"
   xmlns="http://www.w3.org/2000/svg"
   xmlns:svg="http://www.w3.org/2000/svg">
  <sodipodi:namedview
     id="namedview7"
     pagecolor="#ffffff"
     bordercolor="#666666"
     borderopacity="1.0"
     inkscape:pageshadow="2"
     inkscape:pageopacity="0.0"
     inkscape:pagecheckerboard="0"
     inkscape:document-units="mm"
     showgrid="true"
     inkscape:zoom="1.7360655"
     inkscape:cx="298.95186"
     inkscape:cy="-5.4721439"
     inkscape:window-width="2448"
     inkscape:window-height="1731"
     inkscape:window-x="1392"
     inkscape:window-y="61"
     inkscape:window-maximized="0"
     inkscape:current-layer="layer1"
     inkscape:snap-bbox="true"
     inkscape:bbox-paths="false"
     inkscape:bbox-nodes="false"
     inkscape:snap-bbox-edge-midpoints="false"
     inkscape:snap-bbox-midpoints="false"
     inkscape:snap-intersection-paths="true"
     inkscape:snap-nodes="true">
    <inkscape:grid
       type="xygrid"
       id="grid69"
       units="mm"
       spacingx="5.0000001"
       spacingy="5.0000001"
       originx="-58.567826"
       originy="-58.487569" />
  </sodipodi:namedview>
  <defs
     id="defs2">
    <rect
       x="396.8504"
       y="321.25986"
       width="170.07875"
       height="18.89764"
       id="rect40391" />
    <rect
       x="699.21259"
       y="132.28346"
       width="850.39374"
       height="434.64569"
       id="rect3439" />
    <rect
       x="207.87402"
       y="132.28346"
       width="132.28346"
       height="75.590553"
       id="rect10523" />
    <rect
       x="396.8504"
       y="321.25986"
       width="170.07875"
       height="18.89764"
       id="rect40391-3" />
    <rect
       x="396.8504"
       y="321.25986"
       width="170.07875"
       height="18.89764"
       id="rect40391-3-7" />
  </defs>
  <g
     inkscape:label="Layer 1"
     inkscape:groupmode="layer"
     id="layer1"
     transform="translate(-133.37746,-72.127425)">
    <g
       id="g83378">
      <g
         id="g18621"
         transform="matrix(0.26186022,0,0,0.26472781,113.78779,68.516576)">
        <g
           inkscape:label="Layer 1"
           id="layer1-5"
           transform="translate(198.40244,91.422878)">
          <ellipse
             style="fill:#76b900;fill-opacity:1;fill-rule:evenodd;stroke-width:0.85126"
             id="path679"
             cx="-44.247635"
             cy="1.9215307"
             rx="79.345177"
             ry="79.704552" />
          <path
             d="m -63.285114,2.3917577 c -0.197667,0.4641261 -0.494173,1.1567438 -0.672075,1.5351837 l -0.306388,0.6997608 h -3.37026 -3.360374 l -0.375574,0.6926172 c -0.286619,0.5498102 -0.365689,0.7997234 -0.365689,1.1424637 V 6.911628 h 3.212125 c 2.332499,0 3.212126,0.021425 3.212126,0.078544 0,0.049985 -0.04942,0.2070712 -0.1186,0.357019 l -0.108719,0.2784775 -3.567931,0.014269 -3.567931,0.021425 -0.415101,0.7140399 c -0.355806,0.6212151 -0.415107,0.7854443 -0.415107,1.2638515 l -0.0099,0.5569511 h 3.409797 c 1.877854,0 3.409793,0.02142 3.409793,0.04998 0,0.02143 -0.07907,0.214211 -0.168019,0.428425 l -0.168017,0.37844 h -3.765601 -3.775483 l -0.504056,0.928252 c -0.454638,0.828285 -0.51394,0.992514 -0.51394,1.46378 v 0.53553 h 3.646997 3.646998 l -0.217436,0.514108 -0.22732,0.521249 -1.324383,0.04284 c -0.731377,0.02856 -2.549934,0.04999 -4.042337,0.05712 l -2.717951,0.0071 -0.622658,1.135323 c -0.583124,1.056778 -0.622658,1.163884 -0.593009,1.620868 l 0.02965,0.492688 3.884201,0.02143 c 2.124945,0.0071 3.874318,0.04284 3.874318,0.0714 0,0.02856 -0.128485,0.335599 -0.276737,0.69262 l -0.276739,0.642635 -4.309188,0.02143 -4.309189,0.01429 -0.751142,1.356673 c -0.701725,1.270992 -0.751144,1.392378 -0.751144,1.892205 v 0.535531 h 4.200473 c 3.291193,0 4.200468,0.02142 4.200468,0.08568 0,0.04998 -0.168017,0.478405 -0.375569,0.949673 l -0.375572,0.856847 -4.645228,0.02142 -4.655108,0.01429 -0.118608,0.199931 c -0.06916,0.107105 -0.48429,0.828286 -0.909277,1.606589 -0.770909,1.392376 -0.780789,1.413799 -0.780789,2.049293 v 0.642634 h 4.546393 c 3.39991,0 4.54639,0.02142 4.54639,0.08568 0,0.107107 -0.869745,2.134979 -0.978463,2.270644 -0.06918,0.09283 -0.780793,0.114248 -5.159167,0.14281 l -5.070218,0.0357 -1.11683,1.999312 -1.10695,1.999308 -0.0099,0.656917 v 0.664057 h 5.040559 c 2.777254,0 5.040567,0.02142 5.040567,0.04284 0,0.04285 -0.741257,1.763676 -1.195898,2.791895 l -0.207555,0.449844 h -5.61381 -5.613805 l -1.442981,2.606246 -1.44299,2.606244 v 0.928252 0.928251 h 5.54462 c 4.714418,0 5.534739,0.01429 5.495207,0.09997 -0.0494,0.08568 -0.929049,2.106415 -1.561588,3.59162 l -0.197664,0.449848 h -6.295767 -6.305647 l -1.897629,3.413109 -1.897627,3.405965 v 1.049641 1.056778 l 6.25624,0.01427 6.266116,0.02143 -0.909296,2.106415 c -0.504053,1.156744 -1.077289,2.484856 -1.274953,2.941843 l -0.365682,0.842568 -7.224825,0.01427 -7.22481,0.02143 -2.59935,4.676958 -2.59934,4.676957 -0.01,1.013939 v 1.021073 h 7.37307 c 6.888772,0 7.373063,0.0071 7.31375,0.121389 -0.03952,0.06427 -0.336022,0.735456 -0.662183,1.485198 l -0.583124,1.35668 0.01976,1.535182 0.02954,1.535183 h 2.955155 2.955156 l 1.067399,-2.641945 c 0.593016,-1.456639 1.146482,-2.813313 1.225557,-3.020386 l 0.15813,-0.371301 h 41.095447 41.0855508 l 1.2255504,3.034671 1.2156676,3.034666 h 2.9551529 2.945272 V 83.113882 81.48587 L 0.80903354,80.114967 C 0.4828799,79.365226 0.21602703,78.736874 0.21602703,78.715447 c 0,-0.02142 3.44932687,-0.04289 7.65968117,-0.04289 H 15.5355 v -1.021041 l -0.0099,-1.013939 -2.59935,-4.676957 -2.59935,-4.676959 -7.5509647,-0.0357 -7.5410795,-0.0357 -1.2552002,-2.89186 C -6.712188,62.7281 -7.2854302,61.407127 -7.2854302,61.371423 c -0.00989,-0.02853 2.9452731,-0.04999 6.56262149,-0.04999 H 5.8497016 v -1.056745 -1.049635 l -1.8976277,-3.40597 -1.8976259,-3.413109 -6.6219193,-0.01427 -6.6219207,-0.02142 -0.869743,-1.999309 c -0.474391,-1.099642 -0.869731,-2.020754 -0.869731,-2.056454 0,-0.02856 2.629002,-0.04999 5.831245,-0.04999 h 5.8312423 v -0.92825 -0.928251 l -1.442987,-2.606244 -1.4429833,-2.606246 -5.939963,-0.01429 -5.939958,-0.02143 -0.672076,-1.535185 c -0.365689,-0.842567 -0.662192,-1.578028 -0.672075,-1.62801 0,-0.06427 1.126715,-0.08569 5.337068,-0.08569 h 5.33707 v -0.664052 l -0.00989,-0.656918 -1.1069488,-1.99931 -1.1168306,-1.99931 -5.4062526,-0.02142 -5.39637,-0.01429 -0.504054,-1.135324 c -0.266855,-0.621213 -0.494174,-1.185304 -0.494174,-1.249568 0,-0.107105 0.424989,-0.114246 4.892312,-0.114246 h 4.892318 v -0.556951 c 0,-0.571231 -0.138369,-0.856847 -1.84821,-3.855813 -0.03953,-0.06427 -1.136596,-0.08568 -5.010913,-0.08568 h -4.961497 l -0.365686,-0.849707 c -0.19767,-0.464125 -0.385456,-0.89969 -0.42499,-0.963953 -0.0593,-0.107105 0.326155,-0.114246 4.496974,-0.114246 h 4.556277 v -0.535531 c 0,-0.499826 -0.04942,-0.621212 -0.751142,-1.892204 l -0.751145,-1.35667 h -4.615576 -4.62546 l -0.296503,-0.69976 -0.296504,-0.692618 4.240005,-0.02142 4.230122,-0.0143 v -0.514109 c 0,-0.471266 -0.0593,-0.628353 -0.622659,-1.642291 l -0.612774,-1.128183 h -2.520281 c -1.383685,0 -3.350495,-0.02142 -4.368492,-0.04998 l -1.838324,-0.04284 -0.168018,-0.435563 c -0.09883,-0.235634 -0.187787,-0.471267 -0.217436,-0.521249 -0.03953,-0.0714 0.731374,-0.09282 3.933616,-0.107107 l 3.992921,-0.02142 0.02965,-0.421284 c 0.02965,-0.364161 -0.03953,-0.535529 -0.533708,-1.44236 l -0.57324,-1.028225 h -4.071973 -4.071984 l -0.197672,-0.428425 -0.207552,-0.428422 h 3.805132 3.79525 V 9.7463427 c -0.0099,-0.36416 -0.08895,-0.592654 -0.474405,-1.2638504 l -0.464523,-0.8211468 -3.874318,-0.021425 -3.864435,-0.014269 -0.14825,-0.3213174 -0.158137,-0.3213184 3.577816,-0.014296 3.577811,-0.021425 0.02965,-0.3784429 c 0.02965,-0.3141764 -0.04942,-0.521247 -0.39534,-1.1638811 l -0.424988,-0.7783039 -3.696415,-0.014291 -3.696416,-0.021425 -0.652308,-1.520904 -0.652307,-1.5137647 h -1.699957 c -1.304617,0 -1.709839,0.021425 -1.709839,0.085682 0,0.049977 -0.108716,0.6497758 -0.247085,1.3209722 -0.128485,0.6783374 -0.217437,1.3281143 -0.187788,1.4494998 l 0.06918,0.2142132 h -11.14857 c -10.56542,0 -11.13866,-0.00714 -11.069477,-0.128527 0.286622,-0.5355311 0.276738,-0.6711971 -0.0593,-1.7993798 l -0.336036,-1.1067622 -1.699958,-0.021425 -1.699954,-0.014272 z m 27.32777,4.5341495 c 0,0.014291 0.06918,0.1713702 0.148254,0.35702 l 0.138366,0.3427403 H -48.02505 -60.369493 l 0.0593,-0.1999313 c 0.03953,-0.1071068 0.10872,-0.2641956 0.148253,-0.3570206 l 0.08896,-0.1570881 h 12.057824 c 6.631803,0 12.057823,0.00714 12.057823,0.014291 z m 1.502286,3.6987248 0.158139,0.428425 H -48.02505 c -7.550964,0 -13.728128,-0.02143 -13.728128,-0.04999 0,-0.02142 0.07907,-0.214211 0.16802,-0.428422 l 0.168017,-0.378441 h 13.401974 13.401976 z m 1.51217,3.762989 c 0.08896,0.228493 0.177902,0.464127 0.207552,0.52839 0.03953,0.09997 -0.217437,0.121386 -2.194128,0.157089 -2.905737,0.06427 -23.008698,0.06427 -26.102221,0 l -2.372029,-0.04284 0.187786,-0.435563 c 0.09883,-0.242775 0.197666,-0.478406 0.227319,-0.528391 0.02965,-0.06427 3.11329,-0.08568 14.963559,-0.08568 h 14.924028 z m 1.877858,4.641257 c 0.148253,0.349879 0.276738,0.671197 0.296504,0.714039 0.03953,0.0714 -3.459211,0.09283 -17.256524,0.09283 -13.807195,0 -17.296056,-0.02143 -17.266408,-0.09283 0.02965,-0.04284 0.158137,-0.36416 0.286622,-0.714039 l 0.237205,-0.621215 h 16.722815 16.722817 z m 2.184247,5.383859 c 0.168019,0.421283 0.336037,0.849707 0.37557,0.949673 l 0.05931,0.18565 h -19.56926 c -14.489155,0 -19.569252,-0.02142 -19.569252,-0.07855 0,-0.04999 0.158134,-0.478406 0.355803,-0.963953 l 0.365691,-0.885408 18.82799,0.01427 18.837881,0.02143 z m 2.737717,6.769092 c 0.256971,0.621215 0.464525,1.185307 0.464525,1.249572 0,0.107103 -1.917392,0.114246 -22.395928,0.114246 -21.279089,0 -22.386036,-0.0071 -22.336619,-0.128528 0.02965,-0.06426 0.187784,-0.478406 0.355805,-0.906831 0.168018,-0.435563 0.37557,-0.935392 0.454637,-1.128182 l 0.158137,-0.335596 h 21.417459 21.417464 z m 2.777255,6.840501 c 0.01978,0.0714 0.296503,0.756881 0.60289,1.520903 0.306388,0.76402 0.57324,1.449499 0.602892,1.513762 0.04941,0.121387 -1.22555,0.128528 -25.845254,0.128528 -19.855873,0 -25.904551,-0.02143 -25.904551,-0.08568 0,-0.06426 1.057529,-2.720491 1.23543,-3.113212 0.03953,-0.06427 5.050452,-0.08568 24.649354,-0.08568 23.35462,0 24.609821,0.0071 24.659239,0.121388 z m 4.961496,12.302902 c 0.45464,1.121045 0.830213,2.042153 0.830213,2.049297 0,0.01427 -13.69848,0.02143 -30.441065,0.02143 -16.742583,0 -30.441062,-0.02143 -30.441062,-0.04999 0,-0.02853 0.36569,-0.956809 0.810446,-2.070715 l 0.810445,-2.020732 28.800404,0.01429 28.810293,0.02143 z m 5.643456,13.93805 1.186017,2.948983 -36.420556,0.02143 c -20.033775,0.0072 -36.440322,0 -36.460093,-0.0072 -0.02964,-0.02142 1.917391,-4.912586 2.253434,-5.67661 l 0.108716,-0.228495 h 34.068291 34.068293 z"
             id="path889"
             style="fill:#1d1d1d;fill-opacity:1;stroke:none;stroke-width:0.00840071" />
          <circle
             style="fill:#ff5f1d;fill-opacity:1;stroke-width:0.264583"
             id="path5092"
             cx="-80.272247"
             cy="47.894066"
             r="3.3072915" />
          <circle
             style="fill:#ff5f1d;fill-opacity:1;stroke-width:0.264583"
             id="path5092-9"
             cx="-86.580971"
             cy="63.769066"
             r="3.3072915" />
          <circle
             style="fill:#ff5f1d;fill-opacity:1;stroke-width:0.264583"
             id="path5092-9-1"
             cx="-9.8518019"
             cy="63.769066"
             r="3.3072915" />
          <ellipse
             style="fill:#ff5f1d;fill-opacity:1;stroke-width:0.238125"
             id="path5092-6"
             cx="-72.028885"
             cy="28.050316"
             rx="2.9765613"
             ry="2.976562" />
          <ellipse
             style="fill:#ff5f1d;fill-opacity:1;stroke-width:0.238125"
             id="path5092-6-2"
             cx="-24.403887"
             cy="28.050316"
             rx="2.9765613"
             ry="2.976562" />
          <ellipse
             style="fill:#ff5f1d;fill-opacity:1;stroke-width:0.211667"
             id="path5092-5"
             cx="-65.414307"
             cy="12.175315"
             rx="2.645834"
             ry="2.6458333" />
          <ellipse
             style="fill:#ff5f1d;fill-opacity:1;stroke-width:0.211667"
             id="path5092-5-6"
             cx="-31.018469"
             cy="12.175315"
             rx="2.645834"
             ry="2.6458333" />
          <circle
             style="fill:#ff5f1d;fill-opacity:1;stroke-width:0.264583"
             id="path5092-3"
             cx="-16.070032"
             cy="47.894066"
             r="3.3072915" />
          <g
             id="g27822"
             transform="rotate(43.324567,-49.261385,-37.19467)">
            <path
               d="m -3.8352149,-55.248093 c -0.467583,0.0569 -1.251097,0.22748 -1.642856,0.35385 -0.480219,0.15165 -1.364833,0.58764 -1.807139,0.87829 -0.4233496,0.28434 -1.5796656,1.1816 -2.2620826,1.76291 -0.9035715,0.76456 -1.9082385,1.61758 -2.8244465,2.4011 -1.585985,1.36483 -3.443675,2.83076 -4.732684,3.74065 -0.505493,0.35385 -2.489555,1.77555 -3.247795,2.32527 -0.309616,0.22747 -0.890933,0.6761 -1.28269,0.99835 l -0.720329,0.58764 -4.41675,-2.5022 -4.416744,-2.49587 h -18.20409 c -18.15986,0 -18.20409,0 -18.45684,0.12637 -0.32225,0.17061 -0.60027,0.55605 -0.68873,0.96676 -0.0442,0.22747 -0.0632,4.22719 -0.0506,13.18706 0.0189,12.52992 0.0189,12.86481 0.13901,13.10492 0.0695,0.1327 0.22115,0.34121 0.34121,0.45495 l 0.22115,0.21483 h 18.4442 18.43788 l 4.821142,-2.72335 c 2.647522,-1.50384 5.263451,-2.98241 5.806855,-3.29202 1.017307,-0.575 1.225822,-0.75192 1.371152,-1.18159 0.05055,-0.15165 0.06951,-1.61758 0.06951,-5.08653 v -4.8717 l 1.630215,-0.39807 c 0.890933,-0.22116 1.851371,-0.46758 2.129394,-0.54973 0.278021,-0.0758 1.086809,-0.30329 1.800819,-0.50549 1.326922,-0.36648 3.007687,-0.90357 4.2966965,-1.35851 2.9129066,-1.03627 5.3076816,-2.30632 6.8241626,-3.61428 1.90191995,-1.64918 3.19092895,-4.21456 3.336258,-6.65356 0.113737,-1.8956 -0.12637405,-3.10247 -0.82142605,-4.17032 -0.448627,-0.68874 -1.37115195,-1.31429 -2.29999595,-1.54808 -0.499176,-0.12637 -1.371152,-0.2022 -1.794502,-0.15165 z m 1.642853,1.27006 c 0.518132,0.13901 0.834065,0.35384 1.23214195,0.81511 0.890931,1.05521 1.206864,2.47059 0.954118,4.25878 -0.252747,1.78186 -0.99834995,3.24148 -2.34422695,4.58103 -1.396425,1.39643 -3.203565,2.56538 -5.5920226,3.61428 -0.758239,0.33489 -1.13736,0.48654 -2.7170275,1.06786 -0.505495,0.18324 -2.401095,0.79615 -3.001369,0.96675 -0.240108,0.0695 -0.884614,0.25275 -1.4217,0.4044 -1.061536,0.30961 -3.765927,1.05522 -3.816477,1.05522 -0.02527,0 -0.03791,-0.54973 -0.03791,-1.21951 0,-0.66346 -0.03159,-1.3206 -0.06951,-1.45329 -0.107417,-0.38544 -0.391758,-0.6445 -1.276371,-1.15 -0.461264,-0.25906 -0.871976,-0.49285 -0.916208,-0.52445 -0.09478,-0.0632 0.751922,-0.69505 3.178292,-2.3695 3.026642,-2.09148 4.195596,-2.99505 7.683501,-5.92691 3.0013691,-2.51483 4.5747171,-3.60164 5.8700451,-4.03763 0.726646,-0.24643 1.567031,-0.27802 2.274721,-0.0821 z m -25.1735801,18.38732 c 0.695055,0.2338 1.295329,0.75825 1.598624,1.40275 0.14533,0.31593 0.164285,0.42967 0.164285,1.0489 0,0.65082 -0.01263,0.72033 -0.202197,1.12472 -0.492855,1.03626 -1.661809,1.64917 -2.742301,1.44066 -1.4217,-0.27802 -2.31263,-1.5228 -2.13571,-2.96346 0.11373,-0.89725 0.87829,-1.78818 1.78186,-2.0662 0.37912,-0.12006 1.16264,-0.11374 1.535439,0.0126 z"
               id="path6487"
               style="fill:#000000;stroke:none;stroke-width:0.00631867" />
            <text
               xml:space="preserve"
               transform="matrix(0.26458333,0,0,0.26458333,-121.10854,-75.804865)"
               id="text10521"
               style="font-style:normal;font-weight:normal;font-size:26.6667px;line-height:1.25;font-family:sans-serif;white-space:pre;shape-inside:url(#rect10523);fill:#000000;fill-opacity:1;stroke:none"
               x="33.411503"
               y="0"><tspan
                 x="249.46579"
                 y="155.87698"
                 id="tspan83542"><tspan
                   style="text-align:center;text-anchor:middle;fill:#ffffff"
                   id="tspan83540">Rail
</tspan></tspan><tspan
                 x="238.0465"
                 y="189.21036"
                 id="tspan83546"><tspan
                   style="text-align:center;text-anchor:middle;fill:#ffffff"
                   id="tspan83544">Label</tspan></tspan></text>
          </g>
        </g>
      </g>
      <text
         xml:space="preserve"
         transform="matrix(0.26458333,0,0,0.26458333,-6.2291412,53.221654)"
         id="text3437"
         style="font-style:normal;font-weight:normal;font-size:40px;line-height:1.25;font-family:sans-serif;white-space:pre;shape-inside:url(#rect3439);fill:#000000;fill-opacity:1;stroke:none"><tspan
           x="699.21289"
           y="167.67383"
           id="tspan83548">RailLabel
</tspan></text>
      <text
         xml:space="preserve"
         transform="matrix(0.26458333,0,0,0.26458333,74.820174,13.639857)"
         id="text40389"
         style="font-style:normal;font-weight:normal;font-size:13.3333px;line-height:1.25;font-family:sans-serif;white-space:pre;shape-inside:url(#rect40391);fill:#000000;fill-opacity:1;stroke:none"><tspan
           x="396.84961"
           y="333.05661"
           id="tspan83550">TAG</tspan></text>
      <text
         xml:space="preserve"
         transform="matrix(0.26458333,0,0,0.26458333,90.998361,13.639857)"
         id="text40389-6"
         style="font-style:normal;font-weight:normal;font-size:13.3333px;line-height:1.25;font-family:sans-serif;white-space:pre;shape-inside:url(#rect40391-3);fill:#000000;fill-opacity:1;stroke:none"><tspan
           x="396.84961"
           y="333.05661"
           id="tspan83552">YOUR</tspan></text>
      <text
         xml:space="preserve"
         transform="matrix(0.26458333,0,0,0.26458333,107.18344,13.639857)"
         id="text40389-6-5"
         style="font-style:normal;font-weight:normal;font-size:13.3333px;line-height:1.25;font-family:sans-serif;white-space:pre;shape-inside:url(#rect40391-3-7);fill:#000000;fill-opacity:1;stroke:none"><tspan
           x="396.84961"
           y="333.05661"
           id="tspan83554">TRACKS</tspan></text>
    </g>
  </g>
</svg>
